<mxfile host="app.diagrams.net" agent="Mozilla/5.0 (Macintosh; Intel Mac OS X 10_15_7) AppleWebKit/537.36 (KHTML, like Gecko) Chrome/127.0.0.0 Safari/537.36" version="24.7.7">
  <diagram name="第 1 页" id="JENwh_ecXETzRXdGQSSy">
    <mxGraphModel dx="2048" dy="1797" grid="1" gridSize="10" guides="1" tooltips="1" connect="1" arrows="1" fold="1" page="1" pageScale="1" pageWidth="827" pageHeight="1169" math="0" shadow="0">
      <root>
        <mxCell id="0" />
        <mxCell id="1" parent="0" />
        <mxCell id="48Nk2eateA9YyvYsNSkh-2" value="小明" style="shape=umlActor;verticalLabelPosition=bottom;verticalAlign=top;html=1;outlineConnect=0;" vertex="1" parent="1">
          <mxGeometry x="-80" y="60" width="50" height="100" as="geometry" />
        </mxCell>
        <mxCell id="48Nk2eateA9YyvYsNSkh-6" value="&lt;div&gt;...&lt;/div&gt;&lt;div&gt;spec:&lt;/div&gt;&lt;div&gt;&amp;nbsp; pytorchReplicaSpecs:&lt;/div&gt;&lt;div&gt;&amp;nbsp; &amp;nbsp; Master:&lt;/div&gt;&lt;div&gt;&amp;nbsp; &amp;nbsp; &amp;nbsp; replicas: 1&lt;/div&gt;&lt;div&gt;&amp;nbsp; &amp;nbsp; &amp;nbsp;&amp;nbsp;&lt;span style=&quot;background-color: initial;&quot;&gt;&amp;nbsp; &amp;nbsp; nodeSelector:&lt;/span&gt;&lt;/div&gt;&lt;div&gt;&amp;nbsp; &amp;nbsp; &amp;nbsp; &amp;nbsp; &amp;nbsp; &amp;nbsp; kubernetes.io/role: qianfan-new&lt;/div&gt;&lt;div&gt;&amp;nbsp; &amp;nbsp; &amp;nbsp; &amp;nbsp; &amp;nbsp;&amp;nbsp;&lt;span style=&quot;background-color: initial;&quot;&gt;containers:&lt;/span&gt;&lt;/div&gt;&lt;div&gt;&amp;nbsp; &amp;nbsp; &amp;nbsp; &amp;nbsp; &amp;nbsp; &amp;nbsp; - name: pytorch&lt;/div&gt;&lt;div&gt;&amp;nbsp; &amp;nbsp; &amp;nbsp; &amp;nbsp; &amp;nbsp; &amp;nbsp; &amp;nbsp; image: registry.baidubce.com/cce-ai-native/aiak-kl3:20240710&lt;/div&gt;&lt;div&gt;&lt;div&gt;&amp;nbsp; &amp;nbsp; &amp;nbsp; &amp;nbsp; &amp;nbsp; command:&lt;/div&gt;&lt;div&gt;&amp;nbsp; &amp;nbsp; &amp;nbsp; &amp;nbsp; &amp;nbsp; &amp;nbsp; &amp;nbsp; - bash&lt;/div&gt;&lt;div&gt;&amp;nbsp; &amp;nbsp; &amp;nbsp; &amp;nbsp; &amp;nbsp; &amp;nbsp; &amp;nbsp; - /mnt/cfs_bj/lijie/work/icode/baidu/third-party/Kunlun-Megatron-LM/qinduohao/script/gao_run_llama3_70b_bf16_0806_restart.sh&lt;/div&gt;&lt;/div&gt;&lt;div&gt;&lt;div&gt;&amp;nbsp; &amp;nbsp; &amp;nbsp; &amp;nbsp; &amp;nbsp; volumeMounts:&lt;/div&gt;&lt;div&gt;&amp;nbsp; &amp;nbsp; &amp;nbsp; &amp;nbsp; &amp;nbsp; &amp;nbsp; &amp;nbsp; &amp;nbsp; - name: rapidfs-p800&lt;/div&gt;&lt;div&gt;&amp;nbsp; &amp;nbsp; &amp;nbsp; &amp;nbsp; &amp;nbsp; &amp;nbsp; &amp;nbsp; &amp;nbsp; &amp;nbsp; mountPath: /mnt/rapidfs/P800&lt;/div&gt;&lt;/div&gt;&lt;div&gt;&lt;br&gt;&lt;/div&gt;&lt;div&gt;....&lt;/div&gt;&lt;div&gt;&lt;div&gt;&amp;nbsp; &amp;nbsp; Worker:&lt;/div&gt;&lt;div&gt;&amp;nbsp; &amp;nbsp; &amp;nbsp; replicas: 127&lt;/div&gt;&lt;div&gt;&amp;nbsp; &amp;nbsp; &amp;nbsp;&amp;nbsp;&lt;/div&gt;&lt;/div&gt;&lt;div&gt;...&lt;/div&gt;" style="text;html=1;align=left;verticalAlign=middle;whiteSpace=wrap;rounded=0;" vertex="1" parent="1">
          <mxGeometry x="-80" y="150" width="440" height="410" as="geometry" />
        </mxCell>
        <mxCell id="48Nk2eateA9YyvYsNSkh-7" value="llama3-70b-128node-xiaoming.yaml" style="text;html=1;align=center;verticalAlign=middle;whiteSpace=wrap;rounded=0;fontColor=#FF0303;fontStyle=1" vertex="1" parent="1">
          <mxGeometry x="-30" y="-40" width="230" height="30" as="geometry" />
        </mxCell>
        <mxCell id="48Nk2eateA9YyvYsNSkh-9" value="kubectl apply -f&amp;nbsp;llama3-70b-128node-xiaoming.yaml" style="text;html=1;align=center;verticalAlign=middle;whiteSpace=wrap;rounded=0;" vertex="1" parent="1">
          <mxGeometry x="30" y="110" width="310" height="20" as="geometry" />
        </mxCell>
        <mxCell id="48Nk2eateA9YyvYsNSkh-10" value="K8S" style="swimlane;whiteSpace=wrap;html=1;" vertex="1" parent="1">
          <mxGeometry x="340" y="-60" width="780" height="500" as="geometry" />
        </mxCell>
        <mxCell id="48Nk2eateA9YyvYsNSkh-12" value="API服务器" style="rounded=0;whiteSpace=wrap;html=1;" vertex="1" parent="48Nk2eateA9YyvYsNSkh-10">
          <mxGeometry x="50" y="152.5" width="120" height="55" as="geometry" />
        </mxCell>
        <mxCell id="48Nk2eateA9YyvYsNSkh-13" value="&lt;b&gt;Job&lt;/b&gt;&lt;div&gt;Created&lt;/div&gt;&lt;div&gt;Running&lt;/div&gt;&lt;div&gt;Failed&lt;/div&gt;&lt;div&gt;Succeeded&lt;/div&gt;" style="shape=card;whiteSpace=wrap;html=1;" vertex="1" parent="48Nk2eateA9YyvYsNSkh-10">
          <mxGeometry x="230" y="140" width="80" height="100" as="geometry" />
        </mxCell>
        <mxCell id="48Nk2eateA9YyvYsNSkh-15" value="&lt;b&gt;Pod&lt;/b&gt;&lt;div&gt;&lt;b&gt;master-0&lt;/b&gt;&lt;/div&gt;" style="ellipse;whiteSpace=wrap;html=1;aspect=fixed;" vertex="1" parent="48Nk2eateA9YyvYsNSkh-10">
          <mxGeometry x="380" y="40" width="80" height="80" as="geometry" />
        </mxCell>
        <mxCell id="48Nk2eateA9YyvYsNSkh-16" value="&lt;b&gt;Pod&lt;/b&gt;&lt;div&gt;&lt;b&gt;worker-0&lt;/b&gt;&lt;/div&gt;" style="ellipse;whiteSpace=wrap;html=1;aspect=fixed;" vertex="1" parent="48Nk2eateA9YyvYsNSkh-10">
          <mxGeometry x="380" y="160" width="80" height="80" as="geometry" />
        </mxCell>
        <mxCell id="48Nk2eateA9YyvYsNSkh-17" value="&lt;b&gt;Pod&lt;/b&gt;&lt;div&gt;&lt;b&gt;worker-1&lt;/b&gt;&lt;/div&gt;" style="ellipse;whiteSpace=wrap;html=1;aspect=fixed;" vertex="1" parent="48Nk2eateA9YyvYsNSkh-10">
          <mxGeometry x="380" y="270" width="80" height="80" as="geometry" />
        </mxCell>
        <mxCell id="48Nk2eateA9YyvYsNSkh-21" value="&lt;b&gt;Pod&lt;/b&gt;&lt;div&gt;&lt;b&gt;worker-127&lt;/b&gt;&lt;/div&gt;" style="ellipse;whiteSpace=wrap;html=1;aspect=fixed;" vertex="1" parent="48Nk2eateA9YyvYsNSkh-10">
          <mxGeometry x="380" y="410" width="80" height="80" as="geometry" />
        </mxCell>
        <mxCell id="48Nk2eateA9YyvYsNSkh-23" value="..." style="text;html=1;align=center;verticalAlign=middle;whiteSpace=wrap;rounded=0;fontSize=20;fontStyle=1" vertex="1" parent="48Nk2eateA9YyvYsNSkh-10">
          <mxGeometry x="390" y="360" width="60" height="30" as="geometry" />
        </mxCell>
      </root>
    </mxGraphModel>
  </diagram>
</mxfile>
